<?xml version="1.0" encoding="UTF-8" standalone="no"?>
<!DOCTYPE svg PUBLIC "-//W3C//DTD SVG 1.1//EN"
 "http://www.w3.org/Graphics/SVG/1.1/DTD/svg11.dtd">
<!-- Generated by graphviz version 2.43.0 (0)
 -->
<!-- Title: overview Pages: 1 -->
<svg width="1255pt" height="558pt"
 viewBox="0.00 0.00 1254.98 558.00" xmlns="http://www.w3.org/2000/svg" xmlns:xlink="http://www.w3.org/1999/xlink">
<g id="graph0" class="graph" transform="scale(1 1) rotate(0) translate(4 554)">
<title>overview</title>
<polygon fill="white" stroke="transparent" points="-4,4 -4,-554 1250.98,-554 1250.98,4 -4,4"/>
<text text-anchor="middle" x="623.49" y="-537.2" font-family="Helvetica,sans-Serif" font-size="11.00">Fichet safe robot — wiring overview (control/wiring.md, revision 2026&#45;10&#45;09.1)</text>
<g id="clust1" class="cluster">
<title>cluster_dial</title>
<polygon fill="none" stroke="black" stroke-dasharray="5,2" points="264,-109 264,-522 1222.71,-522 1222.71,-109 264,-109"/>
<text text-anchor="middle" x="743.36" y="-510" font-family="Helvetica,sans-Serif" font-size="10.00">Dial unit — all the electronics</text>
</g>
<g id="clust2" class="cluster">
<title>cluster_ramps</title>
<polygon fill="none" stroke="black" points="272,-177 272,-495 880,-495 880,-177 272,-177"/>
<text text-anchor="middle" x="576" y="-483" font-family="Helvetica,sans-Serif" font-size="10.00">Mega 2560 + RAMPS 1.4 &#160;(5 A fuse feeds all 4 drivers)</text>
</g>
<g id="clust3" class="cluster">
<title>cluster_key</title>
<polygon fill="none" stroke="black" stroke-dasharray="5,2" points="1066,-8 1066,-101 1238.98,-101 1238.98,-8 1066,-8"/>
<text text-anchor="middle" x="1152.49" y="-89" font-family="Helvetica,sans-Serif" font-size="10.00">Key turner</text>
</g>
<!-- psu -->
<g id="node1" class="node">
<title>psu</title>
<path fill="none" stroke="black" d="M74,-338C74,-338 12,-338 12,-338 6,-338 0,-332 0,-326 0,-326 0,-314 0,-314 0,-308 6,-302 12,-302 12,-302 74,-302 74,-302 80,-302 86,-308 86,-314 86,-314 86,-326 86,-326 86,-332 80,-338 74,-338"/>
<text text-anchor="middle" x="43" y="-323" font-family="Helvetica,sans-Serif" font-size="10.00">12 V / 5 A PSU</text>
<text text-anchor="middle" x="43" y="-312" font-family="Helvetica,sans-Serif" font-size="10.00">(ledmo)</text>
</g>
<!-- mega -->
<g id="node4" class="node">
<title>mega</title>
<path fill="none" stroke="black" d="M447,-308.5C447,-308.5 292,-308.5 292,-308.5 286,-308.5 280,-302.5 280,-296.5 280,-296.5 280,-279.5 280,-279.5 280,-273.5 286,-267.5 292,-267.5 292,-267.5 447,-267.5 447,-267.5 453,-267.5 459,-273.5 459,-279.5 459,-279.5 459,-296.5 459,-296.5 459,-302.5 453,-308.5 447,-308.5"/>
<text text-anchor="middle" x="369.5" y="-296.5" font-family="Helvetica,sans-Serif" font-size="10.00">Mega 2560</text>
<text text-anchor="middle" x="369.5" y="-285.5" font-family="Helvetica,sans-Serif" font-size="10.00">TX2 D16 / RX2 D17 (AUX&#45;4 18/17)</text>
<text text-anchor="middle" x="369.5" y="-274.5" font-family="Helvetica,sans-Serif" font-size="10.00">button D14 (Y_MIN)</text>
</g>
<!-- psu&#45;&gt;mega -->
<g id="edge1" class="edge">
<title>psu&#45;&gt;mega</title>
<path fill="none" stroke="black" d="M86.09,-315.85C132.31,-311.29 208.11,-303.82 269.55,-297.76"/>
<polygon fill="black" stroke="black" points="270.07,-301.22 279.68,-296.76 269.38,-294.26 270.07,-301.22"/>
<text text-anchor="middle" x="183" y="-325.8" font-family="Helvetica,sans-Serif" font-size="9.00">12 V → RAMPS &#39;5A&#39; input</text>
<text text-anchor="middle" x="183" y="-315.8" font-family="Helvetica,sans-Serif" font-size="9.00">(F1 5 A → every VMOT, incl. E0)</text>
</g>
<!-- usb -->
<g id="node2" class="node">
<title>usb</title>
<path fill="none" stroke="black" d="M73.5,-276.5C73.5,-276.5 12.5,-276.5 12.5,-276.5 6.5,-276.5 0.5,-270.5 0.5,-264.5 0.5,-264.5 0.5,-247.5 0.5,-247.5 0.5,-241.5 6.5,-235.5 12.5,-235.5 12.5,-235.5 73.5,-235.5 73.5,-235.5 79.5,-235.5 85.5,-241.5 85.5,-247.5 85.5,-247.5 85.5,-264.5 85.5,-264.5 85.5,-270.5 79.5,-276.5 73.5,-276.5"/>
<text text-anchor="middle" x="43" y="-264.5" font-family="Helvetica,sans-Serif" font-size="10.00">Computer</text>
<text text-anchor="middle" x="43" y="-253.5" font-family="Helvetica,sans-Serif" font-size="10.00">USB serial log</text>
<text text-anchor="middle" x="43" y="-242.5" font-family="Helvetica,sans-Serif" font-size="10.00">(logger.py)</text>
</g>
<!-- usb&#45;&gt;mega -->
<g id="edge2" class="edge">
<title>usb&#45;&gt;mega</title>
<path fill="none" stroke="black" d="M95.9,-261.12C142.56,-265.72 212.36,-272.6 269.64,-278.25"/>
<polygon fill="black" stroke="black" points="96.05,-257.62 85.76,-260.12 95.37,-264.58 96.05,-257.62"/>
<polygon fill="black" stroke="black" points="269.52,-281.76 279.82,-279.25 270.21,-274.79 269.52,-281.76"/>
<text text-anchor="middle" x="183" y="-278.8" font-family="Helvetica,sans-Serif" font-size="9.00">USB</text>
</g>
<!-- uart -->
<g id="node3" class="node">
<title>uart</title>
<path fill="none" stroke="black" d="M438,-169C438,-169 301,-169 301,-169 295,-169 289,-163 289,-157 289,-157 289,-129 289,-129 289,-123 295,-117 301,-117 301,-117 438,-117 438,-117 444,-117 450,-123 450,-129 450,-129 450,-157 450,-157 450,-163 444,-169 438,-169"/>
<text text-anchor="middle" x="369.5" y="-157" font-family="Helvetica,sans-Serif" font-size="10.00">UART pigtail</text>
<text text-anchor="middle" x="369.5" y="-146" font-family="Helvetica,sans-Serif" font-size="10.00">6 leads, one splice:</text>
<text text-anchor="middle" x="369.5" y="-135" font-family="Helvetica,sans-Serif" font-size="10.00">1 kΩ in the TX2 lead,</text>
<text text-anchor="middle" x="369.5" y="-124" font-family="Helvetica,sans-Serif" font-size="10.00">RX2 + all 4 PDN on the splice</text>
</g>
<!-- x -->
<g id="node5" class="node">
<title>x</title>
<path fill="none" stroke="black" d="M827,-314C827,-314 708,-314 708,-314 702,-314 696,-308 696,-302 696,-302 696,-274 696,-274 696,-268 702,-262 708,-262 708,-262 827,-262 827,-262 833,-262 839,-268 839,-274 839,-274 839,-302 839,-302 839,-308 833,-314 827,-314"/>
<text text-anchor="middle" x="767.5" y="-302" font-family="Helvetica,sans-Serif" font-size="10.00">X socket: TMC2209 addr 0</text>
<text text-anchor="middle" x="767.5" y="-291" font-family="Helvetica,sans-Serif" font-size="10.00">Dial A (top&#45;left)</text>
<text text-anchor="middle" x="767.5" y="-280" font-family="Helvetica,sans-Serif" font-size="10.00">STEP 54 DIR 55 EN 38</text>
<text text-anchor="middle" x="767.5" y="-269" font-family="Helvetica,sans-Serif" font-size="10.00">DIAG → X_MIN D3</text>
</g>
<!-- uart&#45;&gt;x -->
<g id="edge11" class="edge">
<title>uart&#45;&gt;x</title>
<path fill="none" stroke="black" stroke-dasharray="5,2" d="M460.46,-159.84C536.74,-174.27 634.39,-193.16 638,-196 658.79,-212.35 643.55,-232.08 663,-250 670,-256.45 678.19,-261.83 686.83,-266.31"/>
<polygon fill="black" stroke="black" points="460.81,-156.34 450.33,-157.92 459.51,-163.22 460.81,-156.34"/>
<polygon fill="black" stroke="black" points="685.45,-269.52 695.98,-270.66 688.45,-263.2 685.45,-269.52"/>
<text text-anchor="middle" x="561" y="-198.8" font-family="Helvetica,sans-Serif" font-size="9.00">UART (top of each driver&#39;s RX pin)</text>
</g>
<!-- y -->
<g id="node6" class="node">
<title>y</title>
<path fill="none" stroke="black" d="M842.5,-391C842.5,-391 692.5,-391 692.5,-391 686.5,-391 680.5,-385 680.5,-379 680.5,-379 680.5,-351 680.5,-351 680.5,-345 686.5,-339 692.5,-339 692.5,-339 842.5,-339 842.5,-339 848.5,-339 854.5,-345 854.5,-351 854.5,-351 854.5,-379 854.5,-379 854.5,-385 848.5,-391 842.5,-391"/>
<text text-anchor="middle" x="767.5" y="-379" font-family="Helvetica,sans-Serif" font-size="10.00">Y socket: TMC2209 addr 1 (MS1)</text>
<text text-anchor="middle" x="767.5" y="-368" font-family="Helvetica,sans-Serif" font-size="10.00">Dial B (top&#45;right)</text>
<text text-anchor="middle" x="767.5" y="-357" font-family="Helvetica,sans-Serif" font-size="10.00">STEP 60 DIR 61 EN 56</text>
<text text-anchor="middle" x="767.5" y="-346" font-family="Helvetica,sans-Serif" font-size="10.00">DIAG → X_MAX D2</text>
</g>
<!-- uart&#45;&gt;y -->
<g id="edge12" class="edge">
<title>uart&#45;&gt;y</title>
<path fill="none" stroke="black" stroke-dasharray="5,2" d="M458.74,-172.81C458.83,-172.87 458.91,-172.94 459,-173 474.35,-184.4 467.29,-198.71 484,-208 513.97,-224.67 611.88,-195.77 638,-218 675.85,-250.21 630.15,-289.71 663,-327 665.7,-330.06 668.67,-332.88 671.84,-335.47"/>
<polygon fill="black" stroke="black" points="460.67,-169.89 450.4,-167.29 456.81,-175.73 460.67,-169.89"/>
<polygon fill="black" stroke="black" points="669.96,-338.43 680.11,-341.45 674.06,-332.76 669.96,-338.43"/>
</g>
<!-- z -->
<g id="node7" class="node">
<title>z</title>
<path fill="none" stroke="black" d="M843,-468C843,-468 692,-468 692,-468 686,-468 680,-462 680,-456 680,-456 680,-428 680,-428 680,-422 686,-416 692,-416 692,-416 843,-416 843,-416 849,-416 855,-422 855,-428 855,-428 855,-456 855,-456 855,-462 849,-468 843,-468"/>
<text text-anchor="middle" x="767.5" y="-456" font-family="Helvetica,sans-Serif" font-size="10.00">Z socket: TMC2209 addr 2 (MS2)</text>
<text text-anchor="middle" x="767.5" y="-445" font-family="Helvetica,sans-Serif" font-size="10.00">Dial C (bottom)</text>
<text text-anchor="middle" x="767.5" y="-434" font-family="Helvetica,sans-Serif" font-size="10.00">STEP 46 DIR 48 EN 62</text>
<text text-anchor="middle" x="767.5" y="-423" font-family="Helvetica,sans-Serif" font-size="10.00">DIAG → Z_MIN D18</text>
</g>
<!-- uart&#45;&gt;z -->
<g id="edge13" class="edge">
<title>uart&#45;&gt;z</title>
<path fill="none" stroke="black" stroke-dasharray="5,2" d="M458.48,-172.58C458.65,-172.72 458.83,-172.86 459,-173 476.11,-186.99 469.22,-199.56 484,-216 540.75,-279.14 588,-260.39 638,-329 658.69,-357.4 638.53,-378.78 663,-404 665.62,-406.7 668.45,-409.21 671.44,-411.54"/>
<polygon fill="black" stroke="black" points="460.4,-169.65 450.23,-166.71 456.35,-175.36 460.4,-169.65"/>
<polygon fill="black" stroke="black" points="669.49,-414.45 679.69,-417.31 673.5,-408.71 669.49,-414.45"/>
</g>
<!-- e0 -->
<g id="node8" class="node">
<title>e0</title>
<path fill="none" stroke="black" d="M860,-237C860,-237 675,-237 675,-237 669,-237 663,-231 663,-225 663,-225 663,-197 663,-197 663,-191 669,-185 675,-185 675,-185 860,-185 860,-185 866,-185 872,-191 872,-197 872,-197 872,-225 872,-225 872,-231 866,-237 860,-237"/>
<text text-anchor="middle" x="767.5" y="-225" font-family="Helvetica,sans-Serif" font-size="10.00">E0 socket: TMC2209 addr 3 (MS1+MS2)</text>
<text text-anchor="middle" x="767.5" y="-214" font-family="Helvetica,sans-Serif" font-size="10.00">Key</text>
<text text-anchor="middle" x="767.5" y="-203" font-family="Helvetica,sans-Serif" font-size="10.00">STEP 26 DIR 28 EN 24</text>
<text text-anchor="middle" x="767.5" y="-192" font-family="Helvetica,sans-Serif" font-size="10.00">DIAG → Z_MAX D19</text>
</g>
<!-- uart&#45;&gt;e0 -->
<g id="edge14" class="edge">
<title>uart&#45;&gt;e0</title>
<path fill="none" stroke="black" stroke-dasharray="5,2" d="M460.54,-145.12C512.82,-147.74 579.68,-153.49 638,-166 656.04,-169.87 675.02,-175.56 692.7,-181.61"/>
<polygon fill="black" stroke="black" points="460.43,-141.61 450.28,-144.63 460.1,-148.6 460.43,-141.61"/>
<polygon fill="black" stroke="black" points="691.77,-184.99 702.37,-184.99 694.08,-178.38 691.77,-184.99"/>
</g>
<!-- mega&#45;&gt;uart -->
<g id="edge15" class="edge">
<title>mega&#45;&gt;uart</title>
<path fill="none" stroke="black" d="M369.5,-256.97C369.5,-234.23 369.5,-203.27 369.5,-179.36"/>
<polygon fill="black" stroke="black" points="366,-257.1 369.5,-267.1 373,-257.1 366,-257.1"/>
<polygon fill="black" stroke="black" points="373,-179.26 369.5,-169.26 366,-179.26 373,-179.26"/>
<text text-anchor="middle" x="361.5" y="-216.05" font-family="Helvetica,sans-Serif" font-size="9.00">TX2 / RX2 (AUX&#45;4)</text>
</g>
<!-- mega&#45;&gt;x -->
<g id="edge3" class="edge">
<title>mega&#45;&gt;x</title>
<path fill="none" stroke="black" d="M459.37,-288C530.75,-288 629.63,-288 695.72,-288"/>
</g>
<!-- mega&#45;&gt;y -->
<g id="edge4" class="edge">
<title>mega&#45;&gt;y</title>
<path fill="none" stroke="black" d="M459.37,-305.28C525.39,-318.12 614.94,-335.53 680.31,-348.24"/>
</g>
<!-- mega&#45;&gt;z -->
<g id="edge5" class="edge">
<title>mega&#45;&gt;z</title>
<path fill="none" stroke="black" d="M421.07,-308.51C479.26,-332.01 577.77,-371.46 663,-404 673.28,-407.93 684.17,-412.01 694.87,-415.97"/>
</g>
<!-- mega&#45;&gt;e0 -->
<g id="edge6" class="edge">
<title>mega&#45;&gt;e0</title>
<path fill="none" stroke="black" d="M459.29,-273.67C511.47,-264.93 578.64,-253.13 638,-241 646.08,-239.35 654.43,-237.57 662.81,-235.73"/>
</g>
<!-- ma -->
<g id="node9" class="node">
<title>ma</title>
<ellipse fill="none" stroke="black" cx="1152.49" cy="-288" rx="62.45" ry="21.43"/>
<text text-anchor="middle" x="1152.49" y="-291" font-family="Helvetica,sans-Serif" font-size="10.00">Motor A</text>
<text text-anchor="middle" x="1152.49" y="-280" font-family="Helvetica,sans-Serif" font-size="10.00">17HE19&#45;2004S</text>
</g>
<!-- x&#45;&gt;ma -->
<g id="edge7" class="edge">
<title>x&#45;&gt;ma</title>
<path fill="none" stroke="black" d="M839.19,-288C907.65,-288 1010.93,-288 1079.74,-288"/>
<polygon fill="black" stroke="black" points="1080.06,-291.5 1090.06,-288 1080.06,-284.5 1080.06,-291.5"/>
</g>
<!-- mb -->
<g id="node10" class="node">
<title>mb</title>
<ellipse fill="none" stroke="black" cx="1152.49" cy="-365" rx="32.25" ry="18"/>
<text text-anchor="middle" x="1152.49" y="-362.5" font-family="Helvetica,sans-Serif" font-size="10.00">Motor B</text>
</g>
<!-- y&#45;&gt;mb -->
<g id="edge8" class="edge">
<title>y&#45;&gt;mb</title>
<path fill="none" stroke="black" d="M854.93,-365C934.39,-365 1048.81,-365 1109.68,-365"/>
<polygon fill="black" stroke="black" points="1109.69,-368.5 1119.69,-365 1109.69,-361.5 1109.69,-368.5"/>
</g>
<!-- mc -->
<g id="node11" class="node">
<title>mc</title>
<ellipse fill="none" stroke="black" cx="1152.49" cy="-442" rx="32.25" ry="18"/>
<text text-anchor="middle" x="1152.49" y="-439.5" font-family="Helvetica,sans-Serif" font-size="10.00">Motor C</text>
</g>
<!-- z&#45;&gt;mc -->
<g id="edge9" class="edge">
<title>z&#45;&gt;mc</title>
<path fill="none" stroke="black" d="M855.41,-442C934.73,-442 1048.59,-442 1109.41,-442"/>
<polygon fill="black" stroke="black" points="1109.77,-445.5 1119.77,-442 1109.77,-438.5 1109.77,-445.5"/>
</g>
<!-- mk -->
<g id="node12" class="node">
<title>mk</title>
<ellipse fill="none" stroke="black" cx="1152.49" cy="-45" rx="78.48" ry="28.98"/>
<text text-anchor="middle" x="1152.49" y="-53.5" font-family="Helvetica,sans-Serif" font-size="10.00">Key motor</text>
<text text-anchor="middle" x="1152.49" y="-42.5" font-family="Helvetica,sans-Serif" font-size="10.00">17HE19&#45;2004S</text>
<text text-anchor="middle" x="1152.49" y="-31.5" font-family="Helvetica,sans-Serif" font-size="10.00">its own ~1 m cable</text>
</g>
<!-- e0&#45;&gt;mk -->
<g id="edge10" class="edge">
<title>e0&#45;&gt;mk</title>
<path fill="none" stroke="black" stroke-width="2" d="M798.25,-184.83C823.13,-164.13 860.35,-135.83 897,-118 952.91,-90.79 1020.8,-71.95 1072.39,-60.24"/>
<polygon fill="black" stroke="black" stroke-width="2" points="1073.15,-63.65 1082.15,-58.06 1071.63,-56.82 1073.15,-63.65"/>
<text text-anchor="middle" x="973" y="-130.8" font-family="Helvetica,sans-Serif" font-size="9.00">key motor cable, ~1 m</text>
<text text-anchor="middle" x="973" y="-120.8" font-family="Helvetica,sans-Serif" font-size="9.00">(the only wire between the units)</text>
</g>
</g>
</svg>
